<?xml version="1.0" standalone="no"?>
<!DOCTYPE svg PUBLIC "-//W3C//DTD SVG 20010904//EN"
 "http://www.w3.org/TR/2001/REC-SVG-20010904/DTD/svg10.dtd">
<svg version="1.0" xmlns="http://www.w3.org/2000/svg"
 width="1360.000000pt" height="1526.000000pt" viewBox="0 0 1360.000000 1526.000000"
 preserveAspectRatio="xMidYMid meet">

<g transform="translate(0.000000,1526.000000) scale(0.100000,-0.100000)"
fill="#000000" stroke="none">
<path d="M0 7630 l0 -7630 6800 0 6800 0 0 7630 0 7630 -6800 0 -6800 0 0
-7630z m7023 7410 c27 0 40 -5 44 -17 18 -48 56 -91 91 -102 20 -7 42 -11 47
-10 6 2 25 -1 43 -5 22 -5 32 -13 32 -27 0 -15 7 -19 30 -19 17 0 43 -9 58
-20 16 -11 52 -22 87 -26 67 -7 85 -17 85 -46 0 -11 14 -31 31 -45 16 -14 39
-45 50 -69 24 -50 66 -70 127 -59 50 8 168 -11 198 -33 13 -9 22 -24 21 -32
-3 -16 25 -46 52 -55 16 -5 68 -84 63 -95 -1 -3 37 -6 85 -7 125 -4 130 -6
135 -50 3 -21 2 -49 -2 -63 -4 -14 -3 -39 1 -56 7 -26 15 -32 55 -41 25 -6 96
-11 158 -12 125 -2 171 -8 185 -25 5 -6 17 -42 27 -80 25 -91 45 -102 214
-113 114 -8 128 -11 150 -33 14 -14 24 -27 23 -30 -1 -3 29 -39 66 -79 l68
-74 114 -10 c112 -9 133 -17 126 -47 -2 -9 2 -21 9 -28 13 -12 9 -42 -8 -53
-12 -8 2 -40 14 -33 5 3 7 12 4 20 -9 24 23 32 70 16 40 -13 43 -17 39 -42 -3
-16 1 -32 8 -39 8 -6 59 -14 115 -17 l101 -7 3 -45 c3 -39 7 -47 28 -53 14 -4
39 -12 55 -20 33 -14 40 -16 55 -18 6 0 8 -12 4 -25 -7 -29 1 -32 114 -46 48
-6 100 -15 115 -22 24 -9 27 -15 22 -38 -3 -16 -2 -31 4 -34 12 -8 41 -65 41
-81 0 -7 8 -23 18 -35 17 -21 27 -23 140 -24 82 -1 125 -5 134 -13 11 -12 14
-50 6 -98 -3 -18 2 -20 44 -17 54 4 88 -11 88 -38 0 -29 25 -37 140 -44 61 -4
107 -11 111 -18 8 -13 3 -94 -7 -110 -4 -6 0 -15 7 -20 11 -7 11 -11 2 -15
-28 -11 -11 -31 30 -36 51 -7 79 11 57 38 -7 8 -11 17 -9 19 4 5 62 9 96 7 26
-1 35 -31 13 -48 -25 -19 -6 -25 112 -37 l113 -11 3 -58 c2 -39 8 -60 18 -64
7 -3 14 -11 14 -17 0 -12 88 -49 106 -45 5 1 21 -3 36 -9 15 -6 62 -16 104
-21 41 -5 83 -16 92 -24 9 -8 24 -17 32 -20 12 -4 11 -6 -2 -6 -18 -1 -25 -16
-10 -23 11 -5 68 -81 75 -101 9 -25 43 -35 144 -43 110 -8 150 -24 164 -62 8
-24 22 -34 72 -52 34 -12 77 -25 95 -27 36 -6 39 -14 16 -38 -9 -9 -14 -19
-11 -22 3 -3 43 -11 89 -17 70 -10 83 -15 86 -31 1 -11 8 -37 14 -57 l11 -37
88 0 c48 1 92 -2 98 -5 14 -9 14 -46 1 -46 -5 0 -10 -6 -10 -13 0 -21 46 -37
108 -37 31 0 74 -3 95 -6 37 -7 37 -7 37 -55 0 -55 -2 -53 102 -63 75 -8 91
-15 85 -37 -3 -11 -1 -19 5 -19 5 0 7 -4 3 -9 -9 -15 24 -28 88 -35 43 -6 57
-11 58 -24 0 -11 2 -12 6 -4 8 19 51 14 63 -8 10 -19 8 -20 -40 -20 -37 0 -50
-4 -50 -15 0 -21 36 -37 78 -33 l37 3 0 -3815 0 -3815 -100 -8 c-55 -5 -101
-10 -103 -12 -2 -2 -5 -23 -6 -46 -2 -58 -18 -66 -97 -47 -35 8 -65 12 -67 8
-6 -16 -38 2 -54 30 -12 22 -14 32 -5 37 13 8 81 22 144 30 24 3 40 9 37 14
-3 5 2 9 10 9 9 0 16 7 16 15 0 32 31 63 70 70 34 6 39 10 45 41 6 36 -2 5486
-9 5854 -2 113 -1 189 4 170 5 -26 7 -13 7 50 0 69 -1 77 -7 40 -6 -38 -7 -40
-10 -15 -6 66 -6 85 2 85 4 0 7 26 6 58 l-1 57 -7 -45 -7 -45 -3 45 c-1 25 -4
143 -6 263 -4 258 -14 407 -25 407 -5 0 -9 7 -9 15 0 8 -3 15 -8 15 -4 0 -6
18 -4 40 2 22 8 38 12 35 13 -8 28 18 39 65 12 52 0 76 -29 60 -21 -11 -30 -4
-30 23 0 11 -3 18 -6 14 -11 -11 -14 -128 -4 -147 7 -13 7 -21 0 -25 -5 -3
-11 -18 -11 -33 l-1 -27 -8 30 -8 30 -1 -32 c-2 -48 -21 -41 -21 7 0 37 -1 39
-19 28 -11 -7 -22 -20 -24 -30 -3 -12 -11 -16 -21 -12 -19 7 -22 34 -3 34 20
1 -14 17 -50 23 -24 5 -35 2 -41 -10 -8 -13 -10 -11 -16 11 -7 28 -26 36 -26
11 0 -8 -4 -15 -10 -15 -5 0 -10 13 -10 28 0 16 -6 37 -14 47 -12 16 -16 17
-30 6 -22 -18 -20 -31 4 -31 11 0 20 -5 20 -11 0 -7 -10 -9 -24 -7 -14 3 -31
1 -38 -4 -10 -7 -8 -12 8 -24 26 -18 21 -54 -7 -54 -11 0 -19 -5 -19 -11 0 -5
4 -8 9 -4 5 3 12 1 16 -5 4 -6 -18 -10 -59 -10 -64 0 -66 -1 -66 -25 0 -14 -4
-25 -10 -25 -5 0 -10 7 -10 15 0 9 -10 15 -26 15 -19 0 -25 4 -20 15 3 10 -1
15 -12 16 -16 1 -16 2 1 6 17 5 24 23 8 23 -5 0 -11 10 -15 23 -3 13 -9 18
-13 12 -10 -13 -63 -16 -63 -4 0 5 5 9 10 9 6 0 10 7 10 16 0 8 -5 12 -11 9
-6 -4 -17 1 -24 11 -13 18 -14 17 -15 -11 l-2 -30 -10 28 c-8 22 -13 26 -24
16 -8 -6 -14 -18 -14 -25 0 -8 -13 -17 -30 -20 -23 -5 -30 -12 -30 -29 0 -17
-7 -24 -30 -28 -18 -4 -30 -13 -30 -22 0 -8 -4 -15 -10 -15 -5 0 -10 7 -10 15
0 8 -5 15 -11 15 -6 0 -8 -8 -4 -19 3 -11 0 -23 -7 -27 -6 -4 -14 -2 -16 4 -2
7 -10 19 -18 26 -11 12 -10 18 7 40 11 14 27 26 34 26 14 0 31 37 21 47 -3 4
-1 12 5 20 8 8 8 13 1 13 -6 0 -12 -6 -15 -12 -2 -7 -7 -11 -10 -8 -9 9 11 84
24 89 8 2 7 6 -2 12 -10 6 -7 9 11 10 21 0 22 1 6 8 -14 5 -28 -1 -50 -21 -24
-22 -32 -25 -34 -13 -4 19 -22 20 -22 1 0 -11 -14 -15 -52 -15 -85 0 -173 -15
-174 -28 -3 -26 -5 -28 -15 -13 -8 12 -9 10 -4 -7 4 -16 2 -23 -7 -23 -22 0
-68 24 -67 35 3 28 -2 46 -11 40 -6 -4 -7 -12 -3 -18 4 -6 8 -20 9 -31 0 -11
6 -22 12 -24 7 -2 12 -11 12 -19 0 -13 -3 -13 -15 -3 -12 10 -16 9 -21 -4 -8
-21 -31 -20 -37 2 -4 14 -5 14 -6 -3 -1 -14 -8 -20 -25 -20 -13 0 -22 3 -20 6
2 4 -3 12 -11 19 -12 10 -15 10 -15 -3 0 -8 -7 -20 -15 -27 -12 -10 -16 -7
-25 16 -8 19 -14 24 -19 16 -4 -7 -14 -10 -23 -7 -9 4 -19 -3 -26 -17 -8 -18
-11 -19 -11 -5 -1 18 -26 24 -36 7 -3 -5 -12 -7 -20 -3 -9 3 -15 -1 -15 -11 0
-9 -8 -16 -20 -16 -22 0 -23 1 -14 24 3 9 14 16 24 16 11 0 22 5 25 10 9 14
-48 1 -57 -13 -10 -15 -66 -10 -84 7 -20 20 -34 20 -34 1 0 -8 5 -15 10 -15 6
0 10 -9 10 -20 0 -13 -7 -20 -20 -20 -11 0 -20 -4 -20 -10 0 -5 -5 -10 -11
-10 -6 0 -8 7 -5 16 7 18 -35 64 -59 64 -7 0 -16 10 -18 23 l-4 22 -8 -22 c-7
-23 -35 -32 -35 -13 0 20 -31 23 -44 5 -8 -12 -15 -14 -20 -7 -3 6 7 24 23 40
l30 29 -29 28 c-36 35 -50 25 -26 -17 20 -33 3 -30 -22 3 -7 11 -19 16 -28 12
-9 -3 -20 0 -26 8 -7 11 -11 11 -15 2 -2 -7 -12 -13 -21 -13 -25 0 -39 -39
-28 -80 6 -26 20 -42 54 -63 44 -28 45 -28 24 -43 -20 -14 -24 -13 -45 9 -13
13 -26 29 -28 36 -5 14 -72 41 -102 41 -12 0 -20 11 -24 33 -4 17 -6 35 -5 40
1 4 -9 7 -23 7 -30 0 -33 24 -8 52 21 23 10 24 -13 1 -13 -13 -19 -14 -22 -5
-6 20 -29 14 -35 -9 -4 -15 -11 -20 -23 -15 -10 4 -22 0 -30 -11 -12 -17 -13
-17 -19 0 -10 25 -25 21 -25 -8 0 -22 -3 -25 -27 -19 -19 4 -24 3 -14 -4 8 -6
11 -18 7 -30 -4 -12 -1 -22 8 -25 8 -3 12 -14 9 -25 -6 -25 25 -45 105 -67 34
-10 62 -23 62 -30 0 -7 7 -16 16 -19 9 -4 14 -9 10 -13 -9 -10 25 -43 45 -43
10 0 21 -4 24 -10 3 -5 19 -10 34 -10 28 0 41 -10 86 -66 14 -18 39 -35 57
-39 39 -9 42 -10 94 -24 36 -10 43 -16 48 -45 7 -36 21 -44 86 -53 49 -6 105
-37 104 -57 -1 -9 2 -14 6 -11 4 3 10 -13 14 -35 3 -22 10 -40 14 -40 4 0 6
-17 4 -39 -3 -28 -10 -42 -28 -52 -13 -7 -24 -16 -24 -21 0 -4 -9 -8 -20 -8
-11 0 -20 -4 -20 -10 0 -5 -7 -10 -15 -10 -8 0 -15 -6 -15 -14 0 -24 -65 -65
-109 -68 -22 -2 -41 -6 -41 -10 0 -5 -8 -8 -17 -8 -20 0 -53 -28 -53 -45 0
-18 -45 -45 -75 -45 -14 0 -33 -9 -43 -21 -49 -59 -59 -66 -146 -94 -72 -23
-84 -32 -91 -65 -5 -21 -13 -30 -26 -30 -40 0 -107 -38 -153 -87 -24 -25 -39
-33 -66 -33 -32 0 -66 -16 -96 -45 -6 -5 -23 -19 -38 -30 -16 -11 -34 -25 -40
-31 -10 -10 -53 -20 -108 -26 -10 -1 -18 -8 -18 -15 0 -7 -5 -13 -11 -13 -6 0
-9 -9 -6 -20 3 -13 0 -20 -9 -20 -8 0 -22 -4 -32 -9 -9 -4 -42 -20 -73 -35
-31 -14 -69 -37 -85 -51 -15 -13 -42 -27 -59 -31 -16 -3 -63 -31 -103 -62
l-73 -55 -87 -3 c-96 -2 -145 10 -189 47 -26 22 -53 36 -141 71 -21 8 -38 25
-47 45 -12 27 -20 33 -72 43 -102 21 -143 40 -143 67 0 19 -40 52 -63 53 -22
0 -153 70 -133 70 24 0 -35 31 -87 46 -32 9 -65 26 -75 38 -9 12 -28 26 -42
33 -14 6 -53 24 -87 40 -49 22 -63 34 -70 58 -7 24 -16 32 -48 38 -54 12 -153
57 -159 73 -7 17 -53 40 -98 48 -21 4 -37 10 -36 14 1 4 -6 24 -16 45 -15 31
-24 37 -50 38 -83 2 -138 26 -160 70 -11 22 -18 24 -81 24 -63 1 -73 4 -98 28
-15 16 -27 34 -27 42 0 26 -38 55 -72 55 -48 0 -136 44 -147 74 -13 32 -18 34
-81 41 -42 4 -60 12 -86 37 -18 18 -31 35 -28 39 6 11 -84 52 -101 45 -21 -8
-75 14 -75 30 0 32 -86 81 -173 99 -19 4 -27 11 -24 19 9 22 -26 46 -76 51
-26 3 -59 12 -74 20 -14 8 -29 12 -33 10 -3 -2 -7 8 -8 23 -2 27 -43 72 -66
72 -23 0 -46 -25 -48 -52 -2 -20 -12 -32 -41 -47 -21 -12 -50 -21 -63 -21 -34
0 -84 -27 -84 -45 0 -8 -7 -15 -15 -15 -8 0 -15 -4 -15 -9 0 -5 -15 -13 -32
-16 -68 -15 -161 -81 -136 -96 5 -3 -20 -14 -55 -24 -36 -10 -87 -33 -113 -51
-26 -19 -53 -34 -59 -34 -7 0 -26 -7 -42 -15 -26 -13 -65 -18 -180 -24 -16 -1
-25 -10 -31 -33 -7 -30 -13 -34 -63 -44 -124 -26 -145 -36 -149 -72 -4 -25
-37 -42 -80 -42 -54 0 -74 -16 -65 -53 7 -25 -6 -36 -51 -42 -120 -16 -189
-50 -163 -81 18 -22 -10 -41 -61 -41 -47 0 -114 -16 -140 -33 -12 -8 -13 -13
-2 -30 6 -11 12 -22 12 -24 0 -7 -62 -26 -87 -26 -14 0 -38 -8 -53 -17 -23
-13 -28 -22 -23 -44 5 -29 5 -29 -147 -69 -49 -13 -64 -28 -49 -46 14 -18 -8
-29 -94 -49 -76 -18 -91 -27 -112 -68 -7 -15 -30 -27 -78 -39 -75 -20 -117
-43 -117 -64 0 -17 -57 -54 -82 -54 -19 0 -123 -53 -148 -76 -9 -7 -41 -24
-71 -38 -55 -24 -81 -58 -56 -73 6 -4 71 -15 144 -24 147 -20 174 -29 170 -61
-3 -28 20 -34 169 -42 65 -4 141 -12 167 -18 44 -9 48 -13 45 -36 -3 -23 3
-28 42 -43 27 -10 95 -19 172 -23 125 -7 203 -23 203 -43 0 -5 8 -17 18 -27
13 -13 44 -20 125 -27 173 -15 211 -25 241 -58 35 -39 105 -57 263 -70 138
-12 183 -23 175 -45 -11 -27 20 -36 154 -47 144 -12 174 -19 289 -72 75 -35
80 -36 335 -63 101 -11 118 -22 64 -44 l-31 -13 30 -13 c17 -7 72 -15 124 -19
128 -8 248 -26 248 -36 0 -5 6 -9 14 -9 7 0 24 -8 37 -18 35 -27 106 -43 304
-67 28 -4 68 -11 90 -17 l40 -10 -28 -14 c-15 -8 -27 -19 -27 -23 0 -11 106
-28 225 -36 50 -3 107 -9 127 -14 36 -9 68 -31 68 -48 0 -16 70 -34 183 -48
125 -15 139 -19 183 -52 47 -35 110 -53 188 -53 82 0 175 -20 208 -44 13 -9
32 -23 43 -31 11 -8 65 -21 120 -30 188 -30 206 -34 281 -70 66 -32 90 -38
187 -46 165 -13 182 -18 244 -75 24 -22 104 -38 243 -49 95 -7 145 -22 195
-57 35 -24 56 -29 175 -42 127 -13 212 -35 235 -60 28 -30 117 -55 205 -56 30
-1 86 -7 125 -13 60 -11 72 -16 83 -39 15 -33 51 -43 172 -52 47 -3 94 -8 105
-11 11 -2 40 -9 65 -15 25 -6 82 -29 127 -51 46 -21 93 -39 106 -39 52 0 95
-92 104 -222 3 -46 4 -87 4 -93 -6 -37 -16 -687 -26 -1560 -2 -251 -8 -404
-15 -430 -7 -22 -15 -58 -18 -80 -6 -35 -13 -43 -51 -61 -29 -14 -50 -33 -62
-56 -17 -34 -34 -44 -109 -67 -19 -6 -55 -29 -79 -51 -24 -22 -56 -43 -70 -46
-44 -9 -90 -32 -145 -74 -29 -22 -68 -45 -87 -52 -19 -6 -56 -28 -84 -49 -27
-21 -81 -48 -119 -60 -52 -17 -73 -30 -85 -51 -9 -16 -28 -30 -45 -34 -54 -12
-102 -39 -135 -76 -25 -29 -42 -38 -79 -44 -48 -6 -132 -47 -132 -64 0 -6 -6
-10 -14 -10 -7 0 -19 -6 -25 -14 -7 -8 -27 -18 -44 -21 -62 -12 -87 -26 -87
-50 0 -32 -14 -40 -108 -65 -77 -21 -84 -25 -100 -58 -14 -29 -27 -38 -70 -52
-44 -15 -95 -49 -122 -81 -6 -8 -83 -34 -128 -44 -21 -4 -37 -16 -46 -33 -15
-29 -67 -62 -128 -82 -21 -6 -46 -24 -57 -39 -15 -21 -39 -33 -101 -51 -68
-20 -86 -30 -111 -61 -22 -29 -41 -40 -81 -49 -38 -10 -63 -24 -96 -57 -25
-24 -56 -46 -71 -49 -62 -13 -112 -38 -131 -64 -20 -28 -53 -44 -135 -65 -32
-8 -43 -18 -57 -46 -14 -30 -25 -38 -62 -48 -25 -6 -57 -11 -71 -11 -34 0 -75
-28 -75 -50 0 -25 -22 -40 -67 -47 -54 -8 -90 -29 -105 -60 -15 -31 -63 -58
-121 -67 -23 -4 -51 -19 -73 -40 -19 -18 -61 -46 -92 -61 -31 -15 -67 -40 -80
-55 -12 -16 -39 -34 -60 -41 -54 -17 -113 -48 -147 -77 -16 -14 -55 -36 -85
-50 -30 -13 -57 -27 -60 -31 -21 -27 -80 -63 -129 -76 -39 -11 -71 -29 -98
-54 -24 -23 -69 -49 -110 -65 -39 -15 -81 -38 -94 -52 -35 -38 -55 -46 -133
-54 -49 -6 -93 -4 -145 6 -70 13 -86 21 -119 51 -7 7 -38 26 -70 43 -31 17
-75 46 -97 66 -22 19 -61 41 -86 48 -55 17 -125 51 -135 67 -3 6 -30 21 -58
34 -28 12 -72 40 -96 60 -50 42 -84 59 -147 75 -29 7 -51 21 -68 45 -20 25
-43 39 -90 55 -43 14 -76 34 -102 60 -26 26 -55 43 -94 54 -53 15 -72 29 -132
94 -10 11 -38 23 -63 27 -38 5 -49 12 -65 40 -20 34 -40 45 -119 66 -27 7 -61
28 -85 50 -22 21 -53 41 -70 45 -16 4 -61 27 -98 51 -37 25 -90 53 -118 63
-28 11 -66 31 -85 45 -18 14 -62 38 -96 54 -35 15 -85 46 -111 68 -29 24 -72
47 -108 58 -32 10 -76 33 -97 51 -21 17 -67 45 -103 62 -43 19 -76 42 -93 65
-23 30 -38 38 -94 51 -47 11 -74 23 -89 41 -12 14 -25 25 -29 25 -4 0 -15 7
-25 16 -9 8 -38 23 -65 32 -33 12 -53 27 -64 47 -14 25 -32 35 -110 60 -68 22
-95 36 -100 51 -9 23 -52 54 -76 54 -9 0 -32 16 -52 36 -24 24 -58 44 -97 56
-103 33 -113 39 -125 68 -11 27 -46 50 -77 50 -27 0 -133 52 -133 66 0 17 -8
22 -102 55 -56 19 -90 39 -114 63 -19 20 -47 39 -62 42 -42 10 -105 44 -132
72 -28 28 -79 52 -111 52 -12 0 -38 17 -58 38 -42 44 -68 58 -135 75 -30 7
-53 20 -60 32 -19 35 -61 100 -74 113 -32 34 -10 55 78 71 36 7 75 17 88 22
24 9 30 34 10 43 -23 9 31 46 67 46 17 0 45 4 61 9 16 5 42 12 58 16 26 6 27
7 12 24 -9 10 -16 23 -16 29 0 16 66 42 107 42 50 0 71 14 66 44 -6 30 11 41
97 56 79 14 110 32 110 65 0 30 2 32 102 56 93 24 118 39 99 63 -10 12 -9 17
8 25 11 6 32 11 48 11 39 0 123 31 123 46 0 7 -8 18 -17 23 -25 15 -6 26 71
41 141 27 131 23 131 59 l0 34 85 20 c121 28 128 31 123 59 -3 18 2 27 19 35
37 19 213 46 260 40 165 -21 198 -34 198 -79 0 -23 44 -42 115 -53 66 -9 85
-21 85 -50 0 -31 20 -41 105 -55 80 -13 109 -26 101 -46 -9 -24 36 -61 85 -68
66 -11 99 -26 99 -47 0 -26 38 -48 101 -58 30 -5 66 -15 81 -21 23 -11 25 -16
17 -37 -12 -33 17 -45 154 -68 31 -5 37 -10 37 -30 0 -30 29 -50 95 -63 81
-17 105 -29 105 -52 0 -44 17 -58 79 -65 66 -8 98 -29 93 -61 -3 -22 12 -28
123 -51 35 -8 40 -13 43 -38 6 -47 27 -62 95 -70 86 -10 107 -20 107 -49 0
-26 37 -56 70 -56 32 0 87 -26 116 -56 38 -37 85 -64 114 -64 46 0 69 -12 79
-41 11 -31 42 -48 130 -69 43 -10 57 -19 73 -46 19 -33 42 -44 147 -76 30 -9
45 -19 47 -32 4 -32 30 -49 91 -59 147 -25 304 4 288 53 -5 16 2 21 37 30 82
22 148 52 148 65 0 22 39 43 127 70 67 21 83 29 83 45 0 25 29 43 103 66 33
10 76 33 99 53 23 20 69 45 102 56 56 18 61 22 58 47 -4 34 14 44 103 58 88
14 103 23 107 63 3 31 4 32 83 50 113 26 130 34 115 52 -21 25 14 55 64 56 23
0 66 8 96 18 51 17 53 19 28 25 -22 6 -47 34 -36 40 14 9 120 36 137 36 35 0
63 19 56 39 -8 26 24 49 85 61 75 14 124 40 128 68 4 26 48 52 91 52 16 0 33
5 36 10 3 6 17 10 31 10 19 0 24 5 24 24 0 17 9 28 34 40 19 9 42 16 53 16 39
1 102 38 109 65 7 30 47 49 122 60 54 7 67 17 67 50 0 16 14 24 75 43 113 35
125 41 135 65 9 19 32 34 105 67 23 10 44 60 32 72 -6 6 -55 15 -109 20 -117
11 -186 31 -233 69 -31 25 -49 30 -170 44 -139 16 -200 35 -200 61 0 26 -61
42 -210 52 -157 12 -195 21 -204 49 -3 10 -18 23 -33 30 -24 11 -261 43 -313
43 -10 0 -39 16 -64 34 -45 35 -152 66 -228 66 -18 0 -75 6 -126 14 -69 10
-97 19 -110 34 -18 22 -97 52 -136 52 -69 0 -206 34 -270 66 -57 29 -86 37
-165 45 -155 15 -237 36 -256 65 -22 35 -45 41 -187 54 -136 12 -197 27 -205
48 -12 29 -95 53 -218 62 -180 13 -211 22 -180 53 25 25 -41 48 -169 58 -187
14 -239 25 -233 50 1 6 -10 20 -24 31 -22 17 -50 22 -155 29 -164 11 -223 19
-230 30 -3 5 0 9 5 9 15 0 14 19 -2 35 -21 21 -81 32 -202 40 -139 8 -193 21
-228 56 -34 34 -82 49 -162 49 -79 0 -176 24 -250 60 -38 19 -90 34 -140 41
-173 23 -250 39 -261 53 -14 20 -89 52 -139 60 -22 3 -85 11 -140 16 -130 13
-165 20 -162 32 5 25 -88 56 -213 69 -94 10 -127 19 -180 45 -100 49 -152 62
-310 77 -92 9 -146 19 -148 26 -2 7 -14 23 -26 37 -19 22 -35 26 -161 39 -112
11 -144 18 -165 35 -37 31 -100 58 -150 66 -25 4 -51 11 -58 17 -15 12 -18
2370 -2 2411 7 20 16 26 40 26 47 0 68 15 63 44 -6 28 20 45 102 65 66 17 105
32 103 40 -7 25 17 49 65 64 30 9 61 17 70 17 10 0 36 20 60 44 30 30 55 45
82 50 50 10 97 34 90 47 -12 18 24 39 107 63 74 21 83 26 86 49 2 16 12 29 30
35 34 14 149 42 169 42 8 0 21 6 28 14 12 12 12 16 0 26 -27 23 -1 47 57 53
67 7 102 23 119 53 7 13 18 24 26 24 7 0 13 6 13 14 0 9 26 20 78 31 81 18
123 34 89 35 -22 0 -51 26 -43 39 6 8 53 19 116 27 71 8 95 19 96 45 1 13 2
31 3 40 1 12 19 20 64 28 116 23 143 32 124 42 -20 12 -22 29 -3 29 7 0 19 6
25 14 7 8 31 17 54 21 64 9 89 25 83 51 -8 31 29 52 152 84 23 6 40 15 37 20
-16 26 16 47 97 64 97 21 118 30 118 54 1 29 24 50 70 62 54 14 93 35 139 74
19 16 51 35 70 43 81 33 91 39 91 54 0 18 108 59 155 59 43 0 59 14 59 52 1
31 4 33 41 40 22 3 65 12 95 20 46 11 56 17 58 38 6 37 32 53 116 74 47 12 76
24 76 33 0 7 -8 13 -17 14 -13 0 -11 3 7 10 13 6 28 15 32 22 4 6 33 19 65 27
53 15 58 19 66 51 8 35 9 35 108 58 92 22 100 26 95 45 -8 34 15 52 71 59 29
3 69 14 89 23 29 14 35 21 31 41 -4 20 2 26 31 38 19 8 48 15 64 15 16 0 45 7
64 15 28 12 34 19 29 34 -8 25 11 35 103 56 70 16 95 31 91 57 -4 36 9 47 71
54 36 5 147 32 135 33 -16 2 -13 45 4 58 9 7 40 17 68 23 43 9 54 16 59 36 9
36 -3 74 -25 74 -33 0 -81 22 -81 36 0 8 -10 18 -22 23 -13 5 -38 21 -57 35
-31 23 -74 39 -111 40 -10 1 -14 9 -12 23 5 37 -34 54 -181 78 -28 5 -37 10
-33 21 13 34 -14 60 -81 78 -48 12 -76 27 -104 54 -30 29 -55 41 -116 57 -43
11 -78 25 -78 30 -1 36 -56 72 -123 81 -36 5 -60 15 -88 40 -22 18 -43 34 -48
34 -5 0 -17 6 -25 13 -9 8 -32 20 -51 27 -36 14 -57 32 -76 66 -6 10 -29 23
-50 28 -101 23 -118 29 -141 52 -13 13 -26 24 -28 24 -3 0 -14 9 -25 20 -17
17 -33 20 -107 20 -49 0 -95 5 -103 10 -19 12 -22 66 -5 80 8 6 59 15 114 19
98 8 131 19 131 47 0 20 43 38 73 31 13 -4 29 -18 35 -32 15 -33 42 -33 42 1
0 19 4 25 14 21 12 -5 14 4 12 45 -1 31 3 55 11 64 7 7 13 17 13 23 0 16 38
22 115 18 78 -5 115 4 115 29 0 31 34 75 65 82 27 7 30 13 33 51 4 54 22 61
166 67 60 2 117 6 127 9 18 6 83 146 81 176 -1 19 86 29 254 29 119 0 138 11
149 84 15 97 18 108 39 121 12 7 51 13 91 14 39 0 106 5 150 10 44 5 103 7
130 5 28 -2 67 -4 88 -4z m-2410 -1152 c34 -16 31 -39 -7 -49 -36 -10 -46 -4
-46 25 0 38 11 43 53 24z m6402 -1218 c-3 -5 -13 -10 -21 -10 -8 0 -12 5 -9
10 3 6 13 10 21 10 8 0 12 -4 9 -10z m-10145 -1030 c0 -16 -7 -20 -30 -20 -37
0 -52 27 -25 46 23 17 55 1 55 -26z m11427 -686 c-3 -3 -12 -4 -19 -1 -8 3 -5
6 6 6 11 1 17 -2 13 -5z m-1017 -8 c0 -2 -7 -6 -15 -10 -8 -3 -15 -1 -15 4 0
6 7 10 15 10 8 0 15 -2 15 -4z m180 -86 c-12 -8 -10 -10 8 -10 13 0 20 4 17
10 -7 12 22 26 33 16 3 -4 0 -11 -8 -16 -12 -8 -12 -10 -1 -10 8 0 11 -6 7
-16 -3 -8 -2 -12 4 -9 6 3 10 12 10 20 0 7 8 12 18 10 9 -1 16 -8 15 -14 -2
-6 0 -10 5 -10 28 5 30 -5 2 -11 l-35 -7 28 -11 c15 -6 27 -16 27 -21 0 -6 7
-8 15 -5 18 7 21 -22 3 -29 -10 -4 -9 -8 2 -16 21 -15 57 -14 64 2 5 10 7 10
12 0 3 -7 16 -13 29 -13 18 0 24 -7 27 -31 6 -40 -16 -63 -54 -55 -15 3 -28 2
-28 -3 0 -5 -9 -11 -19 -14 -32 -8 -39 64 -8 84 5 4 -8 10 -28 13 -27 5 -40 4
-47 -6 -7 -10 -11 -9 -19 5 -6 9 -14 15 -18 13 -4 -3 -31 1 -59 8 -56 15 -91
40 -69 50 6 4 2 4 -10 2 -25 -5 -30 6 -10 21 19 15 49 24 42 13 -3 -6 -1 -10
4 -10 6 0 11 6 11 14 0 10 7 12 23 9 22 -6 21 -6 -3 16 -14 12 -20 20 -13 17
6 -4 15 -1 18 5 4 5 10 8 13 4 4 -3 0 -10 -8 -15z m930 -40 c9 -17 8 -20 -8
-20 -10 0 -23 -5 -30 -12 -20 -20 -25 0 -5 26 22 31 29 32 43 6z m26 -88 c-4
-3 -11 0 -16 8 -15 24 -11 33 6 15 9 -9 13 -19 10 -23z m164 8 c0 -5 -4 -10
-10 -10 -5 0 -10 5 -10 10 0 6 5 10 10 10 6 0 10 -4 10 -10z m-630 -180 c0 -5
-6 -13 -12 -17 -7 -4 -18 -17 -24 -28 -15 -27 -38 -25 -42 3 -2 12 -8 22 -13
22 -6 0 -8 -9 -4 -19 3 -11 1 -22 -5 -26 -16 -10 -12 41 5 55 8 7 26 10 40 8
14 -3 25 -1 25 3 0 5 7 9 15 9 8 0 15 -4 15 -10z m-4990 -127 c0 -7 -2 -13 -4
-13 -2 0 -11 -3 -19 -6 -9 -3 -16 2 -19 13 -4 14 1 18 19 18 12 0 23 -6 23
-12z m5050 -68 c7 -8 9 -15 4 -15 -4 0 -3 -5 4 -12 16 -16 15 -28 -3 -28 -8 0
-15 -6 -15 -12 -1 -22 -30 25 -30 47 0 36 19 46 40 20z m-11596 -6525 c19 -7
25 -16 24 -35 -2 -20 -10 -27 -38 -35 -46 -13 -47 -13 -54 6 -4 9 -2 13 5 8 8
-4 8 0 0 14 -9 17 -7 23 11 36 27 19 21 18 52 6z m219 -124 c3 -11 -30 -32
-38 -25 -3 4 -3 14 1 23 7 17 33 19 37 2z m12382 -75 c23 -5 30 -12 31 -31 1
-14 3 -31 5 -39 5 -20 -36 -28 -148 -30 -51 0 -93 -3 -93 -6 0 -3 7 -17 16
-30 33 -50 3 -70 -156 -101 -24 -5 -24 -5 -6 10 19 16 19 16 -2 16 -12 0 -31
9 -42 20 -14 14 -33 20 -65 20 -31 0 -45 4 -45 13 0 23 51 39 159 48 58 5 107
12 110 14 2 3 -2 5 -9 5 -17 0 -39 30 -40 53 0 21 33 23 54 2 18 -19 27 -19
20 -1 -10 27 36 46 111 45 38 -1 84 -4 100 -8z m-12157 -43 c4 -21 -27 -25
-46 -6 -20 20 -14 30 15 26 17 -2 29 -10 31 -20z m11745 -169 c29 -16 39 -32
24 -41 -9 -6 -8 -10 3 -18 26 -17 -17 -48 -80 -58 l-55 -8 3 -42 c1 -23 1 -42
0 -43 -2 0 -50 -8 -108 -17 l-105 -17 -5 -40 -5 -40 -60 -8 c-33 -4 -83 -6
-110 -3 l-50 6 0 -58 0 -57 -55 -3 c-32 -2 -62 -10 -72 -19 -11 -10 -26 -13
-43 -9 -14 4 -25 2 -25 -4 0 -5 12 -12 28 -16 42 -9 72 -23 72 -33 0 -17 -39
-23 -153 -23 -135 0 -192 15 -192 51 0 20 8 26 50 38 28 8 71 16 97 18 61 4
71 11 63 45 -8 38 20 56 101 63 81 8 92 13 87 41 -4 18 3 28 29 44 18 11 47
23 65 27 38 8 48 19 58 63 5 26 11 32 32 32 13 0 54 8 91 18 53 14 69 23 83
47 32 53 177 92 232 64z m-11427 -27 c6 -4 13 -24 16 -44 4 -41 2 -42 -51 -32
-27 6 -31 11 -31 39 0 17 3 35 7 38 9 9 45 9 59 -1z m11519 -52 c-3 -5 -13
-10 -21 -10 -8 0 -12 5 -9 10 3 6 13 10 21 10 8 0 12 -4 9 -10z m-11258 -66
c9 -23 -10 -48 -38 -52 -26 -3 -95 49 -82 61 3 4 30 7 60 7 40 0 55 -4 60 -16z
m186 -103 c19 -1 23 -26 7 -36 -6 -4 -17 -1 -25 5 -9 8 -26 9 -47 4 -18 -4
-36 -7 -40 -6 -18 5 -6 -9 15 -18 20 -8 21 -9 2 -11 -14 -1 -11 -4 10 -9 26
-7 23 -8 -22 -9 -55 -1 -83 6 -83 20 0 5 9 9 20 9 10 0 23 6 27 14 4 8 17 16
28 19 11 2 4 3 -15 1 -32 -3 -33 -2 -17 11 17 12 51 14 140 6z m-26 -37 c-3
-3 -12 -4 -19 -1 -8 3 -5 6 6 6 11 1 17 -2 13 -5z m117 -120 c26 -10 18 -24
-14 -24 -20 0 -30 5 -30 15 0 16 17 19 44 9z m267 -64 c32 -17 24 -49 -17 -66
-52 -22 -78 -15 -82 19 -2 16 -1 35 2 43 6 17 68 19 97 4z m9626 -96 c19 -5
22 -12 18 -44 -2 -21 -9 -48 -15 -60 -12 -22 -15 -22 -81 -8 -8 2 -14 -5 -14
-16 0 -16 7 -20 39 -20 42 -1 73 -29 48 -45 -7 -4 -82 -13 -167 -21 -132 -11
-155 -15 -155 -29 0 -10 6 -23 13 -30 18 -18 -26 -51 -70 -51 -63 0 -91 -30
-58 -63 26 -27 -5 -36 -145 -44 -74 -4 -141 -7 -147 -6 -40 2 -44 4 -37 15 4
6 10 25 14 42 4 23 12 31 29 32 12 1 44 11 69 22 26 11 55 23 65 26 9 3 21 16
27 30 5 13 14 27 19 31 11 6 75 20 151 32 62 10 82 45 33 58 -43 10 -15 22
125 51 15 3 22 12 22 28 0 30 18 45 58 48 18 1 32 5 32 9 0 16 85 24 127 13z
m-9412 -39 c0 -24 -46 -50 -57 -32 -11 17 -10 24 8 42 21 21 49 15 49 -10z
m9485 21 c0 -3 -4 -8 -10 -11 -5 -3 -10 -1 -10 4 0 6 5 11 10 11 6 0 10 -2 10
-4z m-842 -428 c7 -7 12 -21 12 -32 0 -13 3 -17 8 -10 4 6 21 15 38 18 27 6
32 4 38 -16 10 -37 8 -39 -31 -36 -24 2 -42 -2 -49 -11 -7 -9 -30 -15 -55 -15
-50 -1 -59 -9 -59 -52 0 -40 -8 -43 -142 -51 -96 -5 -110 -4 -128 12 -25 22
-26 44 -2 52 9 4 28 14 42 24 14 9 42 20 63 24 32 5 41 12 53 40 10 24 22 36
42 40 15 3 38 10 52 14 38 13 104 13 118 -1z m-336 -230 c14 -23 9 -75 -8 -82
-25 -10 -121 -7 -169 5 -48 12 -66 43 -39 69 28 28 199 34 216 8z m-217 -113
c3 -14 7 -36 10 -49 4 -20 0 -25 -27 -30 -33 -6 -151 10 -181 26 -11 6 -17 18
-15 31 2 17 14 23 58 33 30 6 76 12 102 13 43 1 48 -1 53 -24z m68 -52 c-7 -2
-19 -2 -25 0 -7 3 -2 5 12 5 14 0 19 -2 13 -5z m-308 -53 c20 -8 26 -15 22
-30 -3 -11 -1 -23 4 -26 16 -9 10 -24 -14 -35 -17 -8 -36 -7 -65 1 -38 10 -47
19 -43 43 1 4 -12 -2 -28 -14 -26 -19 -33 -20 -46 -9 -20 16 -16 49 7 64 13 8
22 6 37 -8 18 -16 21 -17 21 -3 0 27 56 36 105 17z m115 -50 c0 -13 -28 -25
-38 -16 -3 4 0 11 8 16 20 13 30 12 30 0z m-270 -45 c10 -13 9 -15 -9 -15 -22
0 -29 -24 -10 -36 6 -3 30 -6 52 -6 54 1 77 -6 77 -24 0 -11 -18 -14 -77 -16
-118 -2 -136 1 -165 30 -16 14 -28 29 -28 33 0 5 27 13 60 20 33 6 63 16 66
20 8 13 20 11 34 -6z m-160 -130 c17 -20 0 -67 -31 -82 -50 -25 -189 16 -189
56 0 20 2 21 90 34 62 10 118 6 130 -8z m-188 -119 c13 -24 31 -20 18 4 -12
23 -10 24 23 9 29 -13 53 -57 39 -71 -15 -15 -153 -21 -198 -9 -50 13 -106 57
-84 66 91 34 183 34 202 1z m-251 -123 c15 -39 0 -58 -42 -57 -37 1 -152 47
-157 63 -3 9 40 15 141 19 43 2 48 0 58 -25z m-159 -105 c-3 -21 1 -27 20 -30
13 -2 23 -7 23 -13 0 -14 -64 -19 -80 -5 -8 7 -14 7 -17 1 -4 -13 -57 -22 -91
-15 -35 7 -47 47 -21 75 15 17 28 19 93 17 76 -3 76 -3 73 -30z m-175 -123 c1
-22 -3 -43 -10 -47 -18 -11 -105 -10 -112 2 -3 6 -15 10 -26 10 -10 0 -19 -4
-19 -10 0 -16 -26 -12 -42 8 -21 22 -7 60 24 67 31 6 105 12 148 11 34 -1 35
-3 37 -41z m-217 -96 c0 -35 3 -40 18 -34 39 15 69 16 95 2 46 -24 16 -30
-151 -30 -159 1 -176 5 -169 42 3 18 120 60 170 61 37 0 37 0 37 -41z m-219
-122 c11 -42 2 -57 -37 -57 -56 0 -170 59 -145 74 5 3 11 0 14 -6 3 -10 10 -8
23 5 15 14 32 17 78 15 56 -3 60 -5 67 -31z m-221 -87 c12 -7 11 -13 -10 -34
-13 -15 -34 -26 -46 -26 -36 0 -68 43 -47 63 10 10 86 8 103 -3z m-167 -115
c17 -7 17 -9 1 -26 -20 -22 -40 -25 -47 -6 -3 9 -15 6 -44 -10 -23 -13 -46
-23 -52 -23 -15 0 -25 48 -13 63 11 13 124 15 155 2z m-173 -117 c0 -51 -72
-80 -89 -35 -12 31 13 57 56 57 27 0 33 -4 33 -22z m56 -55 c-10 -10 -19 5
-10 18 6 11 8 11 12 0 2 -7 1 -15 -2 -18z m-293 -53 c9 0 17 -4 17 -9 0 -5 -8
-7 -19 -4 -10 3 -22 0 -25 -6 -10 -16 -46 -14 -46 2 0 21 12 29 35 23 11 -3
28 -6 38 -6z m112 -20 c3 -6 0 -17 -8 -25 -13 -12 -14 -11 -14 11 0 25 11 32
22 14z m-166 -41 c-16 -10 -23 -4 -14 10 3 6 11 8 17 5 6 -4 5 -9 -3 -15z
m-166 -42 c16 -11 16 -14 2 -35 -19 -26 -43 -28 -61 -4 -19 24 -17 31 9 42 30
12 31 12 50 -3z m-108 -137 c13 -42 -23 -53 -63 -20 -30 24 -21 40 23 40 25 0
35 -5 40 -20z"/>
<path d="M7927 14459 c-16 -9 -16 -12 -2 -26 12 -12 13 -18 4 -29 -10 -12 -9
-13 5 -8 10 4 16 18 16 40 0 19 -1 34 -2 34 -2 0 -11 -5 -21 -11z"/>
<path d="M9436 11691 c-24 -26 -13 -41 29 -41 40 0 50 12 35 40 -14 25 -42 26
-64 1z"/>
<path d="M9636 11595 c-15 -14 -22 -25 -17 -25 6 0 11 -7 11 -15 0 -15 28 -34
60 -40 23 -4 72 49 64 69 -6 16 -47 36 -73 36 -10 0 -30 -11 -45 -25z"/>
<path d="M9820 11480 c-14 -5 -20 -8 -14 -9 7 -1 14 -11 18 -24 6 -24 9 -25
90 -29 55 -3 64 6 38 40 -19 25 -85 36 -132 22z"/>
<path d="M10311 11477 c0 -10 -8 -20 -16 -23 -8 -4 -15 -12 -15 -20 0 -19 16
-18 24 2 4 9 13 14 21 10 8 -3 15 -1 15 4 0 6 -4 10 -9 10 -5 0 -12 8 -14 18
-4 16 -5 16 -6 -1z"/>
<path d="M12431 11454 c0 -11 3 -14 6 -6 3 7 2 16 -1 19 -3 4 -6 -2 -5 -13z"/>
<path d="M10310 11410 c0 -5 7 -10 16 -10 8 0 12 5 9 10 -3 6 -10 10 -16 10
-5 0 -9 -4 -9 -10z"/>
<path d="M9990 11386 c13 -13 13 -29 0 -21 -6 3 -10 -5 -10 -18 0 -25 13 -35
56 -43 14 -2 24 2 28 12 4 10 13 13 26 9 11 -3 20 -2 20 3 0 16 -46 52 -68 52
-12 0 -22 4 -22 9 0 6 -9 9 -20 8 -13 -1 -16 -5 -10 -11z"/>
<path d="M12803 11335 c-3 -9 -3 -18 -1 -21 3 -3 8 4 11 16 6 23 -1 27 -10 5z"/>
<path d="M12900 11341 c0 -8 -6 -11 -16 -7 -12 5 -15 2 -10 -10 3 -8 6 -18 6
-20 0 -2 6 -4 14 -4 21 0 29 17 17 37 -7 12 -10 13 -11 4z"/>
<path d="M10880 11330 c0 -5 -7 -10 -16 -10 -8 0 -22 -7 -30 -15 -26 -26 10
-30 51 -6 19 11 35 16 35 11 0 -6 5 -10 10 -10 6 0 10 9 10 20 0 16 -7 20 -30
20 -16 0 -30 -4 -30 -10z"/>
<path d="M12835 11320 c-3 -5 -1 -10 4 -10 6 0 11 5 11 10 0 6 -2 10 -4 10 -3
0 -8 -4 -11 -10z"/>
<path d="M12770 11286 c0 -2 7 -6 15 -10 8 -3 15 -1 15 4 0 6 -7 10 -15 10 -8
0 -15 -2 -15 -4z"/>
<path d="M12060 11271 c0 -5 6 -12 13 -15 6 -3 2 -3 -11 0 -21 5 -22 3 -20
-36 2 -33 6 -40 21 -36 9 2 17 1 17 -4 0 -11 59 -24 98 -21 18 2 39 -3 47 -9
12 -10 15 -9 15 4 0 9 5 16 10 16 6 0 10 6 10 14 0 8 5 16 11 18 7 2 2 14 -12
30 -21 24 -24 25 -37 9 -10 -12 -15 -13 -18 -3 -3 6 -14 12 -24 12 -10 0 -22
5 -26 11 -3 6 -17 9 -30 6 -13 -2 -24 0 -24 4 0 5 -9 9 -20 9 -11 0 -20 -4
-20 -9z m194 -60 c3 -5 -1 -11 -9 -14 -9 -4 -12 -1 -8 9 6 16 10 17 17 5z"/>
<path d="M11060 11264 c0 -7 -11 -9 -26 -6 -38 7 -73 -16 -80 -54 -3 -18 -13
-35 -23 -37 -11 -3 -9 -5 7 -6 16 -1 22 5 22 20 0 11 5 17 10 14 6 -4 8 -10 5
-15 -8 -12 16 -25 24 -13 11 18 48 25 48 9 0 -9 -4 -13 -9 -10 -4 3 -8 0 -8
-6 0 -20 28 -22 55 -4 20 13 29 14 34 5 6 -9 11 -9 20 3 9 11 9 15 -1 19 -10
4 -8 10 6 21 25 20 9 41 -36 44 -18 2 -36 8 -40 15 -5 8 -8 8 -8 1z m63 -64
c-3 -11 -9 -20 -14 -20 -14 0 -11 28 4 33 6 3 13 6 14 6 0 1 -1 -8 -4 -19z"/>
<path d="M10628 11238 c-10 -6 -10 -8 0 -8 6 0 12 -4 12 -10 0 -5 -10 -9 -22
-7 -15 1 -23 -3 -23 -13 0 -10 12 -16 36 -17 29 -2 38 3 52 26 l17 29 -30 4
c-16 3 -35 1 -42 -4z"/>
<path d="M10526 11232 c-4 -7 -1 -12 8 -12 13 0 13 -4 -2 -30 -9 -16 -20 -30
-24 -30 -14 0 -9 -23 9 -42 15 -17 15 -18 0 -18 -10 0 -17 5 -17 10 0 6 -5 10
-11 10 -6 0 -9 -8 -7 -17 4 -19 7 -19 50 -9 23 5 27 3 22 -11 -4 -11 -3 -14 3
-7 4 6 15 14 23 17 12 4 11 6 -2 6 -12 1 -18 9 -18 25 0 19 4 23 19 19 10 -3
21 0 25 5 3 6 -9 10 -29 10 -19 0 -35 -4 -35 -9 0 -5 -4 -9 -10 -9 -18 0 -10
18 10 25 11 4 18 10 15 15 -3 5 0 10 6 12 7 2 3 13 -9 27 -13 17 -21 21 -26
13z"/>
<path d="M11200 11206 c0 -14 5 -26 10 -26 6 0 10 9 10 19 0 11 -4 23 -10 26
-6 4 -10 -5 -10 -19z"/>
<path d="M11538 11223 c12 -2 32 -2 45 0 12 2 2 4 -23 4 -25 0 -35 -2 -22 -4z"/>
<path d="M11311 11211 c-7 -5 -11 -15 -9 -22 3 -10 8 -7 17 9 13 24 12 26 -8
13z"/>
<path d="M11340 11211 c0 -6 5 -13 10 -16 6 -3 10 1 10 9 0 9 -4 16 -10 16 -5
0 -10 -4 -10 -9z"/>
<path d="M11437 11200 c3 -11 0 -20 -6 -20 -6 0 -11 5 -11 10 0 6 -7 10 -15
10 -8 0 -15 -4 -15 -10 0 -5 -10 -10 -23 -10 -20 0 -22 -4 -19 -40 l4 -40 44
0 c24 0 44 5 44 10 0 6 5 10 10 10 6 0 10 -12 10 -26 0 -20 4 -25 16 -20 9 3
19 6 22 7 4 0 -2 4 -13 9 -17 7 -17 9 -2 9 22 1 22 5 -8 49 -14 20 -25 45 -25
54 0 10 -4 18 -9 18 -5 0 -7 -9 -4 -20z m-43 -35 c-22 -17 -34 -19 -34 -6 0 5
8 12 18 14 32 9 36 7 16 -8z m42 -32 c-11 -11 -19 6 -11 24 8 17 8 17 12 0 3
-10 2 -21 -1 -24z m-26 -13 c0 -5 -9 -10 -20 -10 -11 0 -20 5 -20 10 0 6 9 10
20 10 11 0 20 -4 20 -10z"/>
<path d="M11620 11212 c0 -5 -22 -7 -49 -4 -43 4 -50 2 -61 -18 -13 -24 -2
-39 28 -40 6 0 12 -4 12 -10 0 -5 -7 -10 -15 -10 -8 0 -15 -7 -15 -15 0 -14
47 -21 103 -16 9 1 17 -3 17 -9 0 -6 5 -8 10 -5 6 4 8 11 5 16 -4 5 2 6 12 2
10 -3 15 -3 11 1 -9 11 30 52 39 42 4 -4 1 -11 -7 -16 -16 -10 -23 -40 -9 -40
5 0 9 5 9 10 0 6 6 9 13 8 6 -2 13 9 15 23 2 16 12 31 28 37 30 14 32 34 2 30
-13 -2 -23 -9 -23 -17 0 -25 -20 -22 -36 7 -12 21 -24 28 -52 30 -20 2 -37 -1
-37 -6z m60 -32 c0 -5 -4 -10 -10 -10 -5 0 -10 5 -10 10 0 6 5 10 10 10 6 0
10 -4 10 -10z m-133 -6 c-3 -3 -12 -4 -19 -1 -8 3 -5 6 6 6 11 1 17 -2 13 -5z
m73 -24 c0 -5 -4 -10 -10 -10 -5 0 -10 5 -10 10 0 6 5 10 10 10 6 0 10 -4 10
-10z m50 0 c0 -5 -9 -10 -21 -10 -11 0 -17 5 -14 10 3 6 13 10 21 10 8 0 14
-4 14 -10z"/>
<path d="M11160 11193 c1 -18 30 -44 40 -38 8 5 5 13 -9 26 -21 20 -31 24 -31
12z"/>
<path d="M11322 11145 c-3 -46 -15 -71 -31 -61 -7 5 -11 -5 -11 -28 0 -20 -4
-36 -10 -36 -5 0 -10 -4 -10 -10 0 -23 19 -7 30 25 10 30 14 33 30 25 15 -8
20 -6 25 11 4 12 2 24 -3 28 -6 3 -12 24 -15 46 l-4 40 -1 -40z"/>
<path d="M11780 11136 c0 -27 35 -45 52 -28 7 7 3 12 -10 17 -13 4 -19 12 -15
21 3 8 -1 14 -11 14 -10 0 -16 -9 -16 -24z"/>
<path d="M10375 11140 c-3 -5 3 -14 14 -20 20 -10 41 3 27 18 -10 10 -35 11
-41 2z"/>
<path d="M10437 11144 c-14 -14 -7 -30 14 -31 14 -1 19 3 17 14 -3 18 -21 27
-31 17z"/>
<path d="M11260 11140 c0 -5 5 -10 10 -10 6 0 10 5 10 10 0 6 -4 10 -10 10 -5
0 -10 -4 -10 -10z"/>
<path d="M10620 11130 c0 -5 5 -10 10 -10 6 0 10 5 10 10 0 6 -4 10 -10 10 -5
0 -10 -4 -10 -10z"/>
<path d="M10865 11120 c3 -5 8 -10 11 -10 2 0 4 5 4 10 0 6 -5 10 -11 10 -5 0
-7 -4 -4 -10z"/>
<path d="M11205 11119 c-11 -17 1 -21 15 -4 8 9 8 15 2 15 -6 0 -14 -5 -17
-11z"/>
<path d="M11240 11100 c0 -5 7 -10 15 -10 8 0 15 5 15 10 0 6 -7 10 -15 10 -8
0 -15 -4 -15 -10z"/>
<path d="M11746 11101 c-4 -5 -2 -12 3 -15 5 -4 12 -2 15 3 4 5 2 12 -3 15 -5
4 -12 2 -15 -3z"/>
<path d="M13032 11102 c-8 -6 -2 -9 18 -9 20 0 26 3 18 9 -7 4 -15 8 -18 8 -3
0 -11 -4 -18 -8z"/>
<path d="M11370 11054 c0 -21 -4 -24 -20 -19 -22 7 -25 -2 -9 -25 8 -11 12
-12 16 -2 2 6 13 12 24 12 14 0 19 7 19 30 0 20 -5 30 -15 30 -9 0 -15 -10
-15 -26z"/>
<path d="M11580 11071 c0 -17 18 -21 24 -6 3 9 0 15 -9 15 -8 0 -15 -4 -15 -9z"/>
<path d="M11676 11065 c-9 -26 -7 -32 5 -12 6 10 9 21 6 23 -2 3 -7 -2 -11
-11z"/>
<path d="M11790 11065 c0 -8 7 -15 15 -15 8 0 15 7 15 15 0 8 -7 15 -15 15 -8
0 -15 -7 -15 -15z"/>
<path d="M12365 11070 c3 -5 8 -10 11 -10 2 0 4 5 4 10 0 6 -5 10 -11 10 -5 0
-7 -4 -4 -10z"/>
<path d="M10545 11060 c-11 -5 -16 -9 -11 -9 5 -1 3 -7 -3 -15 -10 -12 -8 -19
8 -35 12 -12 29 -21 39 -21 23 0 70 42 54 48 -7 2 -12 12 -12 23 0 14 -7 19
-27 18 -16 0 -37 -4 -48 -9z"/>
<path d="M11458 11053 c6 -2 18 -2 25 0 6 3 1 5 -13 5 -14 0 -19 -2 -12 -5z"/>
<path d="M11535 11050 c3 -5 8 -10 11 -10 2 0 4 5 4 10 0 6 -5 10 -11 10 -5 0
-7 -4 -4 -10z"/>
<path d="M11431 11034 c0 -11 3 -14 6 -6 3 7 2 16 -1 19 -3 4 -6 -2 -5 -13z"/>
<path d="M12320 11038 c0 -4 14 -8 30 -8 17 0 30 5 30 10 0 6 -13 9 -30 8 -16
-1 -30 -6 -30 -10z"/>
<path d="M12814 11035 c8 -8 16 -15 19 -15 2 0 4 7 4 15 0 8 -9 15 -19 15 -17
0 -18 -2 -4 -15z"/>
<path d="M11435 10990 c3 -5 8 -10 11 -10 2 0 4 5 4 10 0 6 -5 10 -11 10 -5 0
-7 -4 -4 -10z"/>
<path d="M12920 10990 c0 -5 7 -10 15 -10 8 0 15 5 15 10 0 6 -7 10 -15 10 -8
0 -15 -4 -15 -10z"/>
<path d="M11528 10983 c7 -3 16 -2 19 1 4 3 -2 6 -13 5 -11 0 -14 -3 -6 -6z"/>
<path d="M11831 10974 c0 -11 3 -14 6 -6 3 7 2 16 -1 19 -3 4 -6 -2 -5 -13z"/>
<path d="M12400 10979 c0 -6 -7 -17 -15 -25 -8 -9 -15 -23 -14 -32 0 -13 2
-14 6 -2 3 8 14 23 25 34 20 22 23 36 8 36 -5 0 -10 -5 -10 -11z"/>
<path d="M11400 10950 c0 -5 7 -10 16 -10 8 0 12 5 9 10 -3 6 -10 10 -16 10
-5 0 -9 -4 -9 -10z"/>
<path d="M12347 10926 c-4 -10 -5 -21 -2 -24 9 -9 17 6 13 25 -3 17 -4 17 -11
-1z"/>
<path d="M12800 10920 c0 -5 5 -10 10 -10 6 0 10 5 10 10 0 6 -4 10 -10 10 -5
0 -10 -4 -10 -10z"/>
<path d="M13248 10530 c-11 -38 -10 -56 3 -43 6 6 9 23 7 39 l-3 29 -7 -25z"/>
<path d="M13246 10373 c10 -40 14 -41 14 -5 0 18 -5 32 -10 32 -6 0 -8 -11 -4
-27z"/>
<path d="M13253 10255 c0 -22 2 -30 4 -17 2 12 2 30 0 40 -3 9 -5 -1 -4 -23z"/>
<path d="M3450 5680 c0 -5 5 -10 11 -10 5 0 7 5 4 10 -3 6 -8 10 -11 10 -2 0
-4 -4 -4 -10z"/>
<path d="M3278 5563 c7 -3 16 -2 19 1 4 3 -2 6 -13 5 -11 0 -14 -3 -6 -6z"/>
</g>
</svg>
